# xmcd
#
# Track frame offsets:
#	182
#	17545
#	51782
#
# Disc length: 900 seconds
#
# Revision: 1
# Processed by: cddbd v1.5.2PL0 Copyright (c) Steve Scherf et al.
# Submitted via: audiograbber 1.83.01
#
DISCID=19038203
DTITLE=A la Carte - The Hit Mix 1998 (Maxi)
DYEAR=1998
DGENRE=Pop
TTITLE0=The Hit Mix 1998 (Radio Edit)
TTITLE1=The Hit Mix 1998 (Extended Version)
TTITLE2=Do wah diddy 1998
EXTD=
EXTT0=
EXTT1=
EXTT2=
PLAYORDER=
